<svg width="100%" height="100%" viewBox="0 0 1440 900" xmlns="http://www.w3.org/2000/svg" preserveAspectRatio="xMidYMid slice">
<defs>
  <radialGradient id="bg" cx="50%" cy="50%" r="70%">
    <stop offset="0%" style="stop-color:#0a0a1a"/>
    <stop offset="100%" style="stop-color:#020208"/>
  </radialGradient>
  <radialGradient id="eyeGlow1" cx="50%" cy="50%" r="50%">
    <stop offset="0%" style="stop-color:#00ff88;stop-opacity:0.6"/>
    <stop offset="100%" style="stop-color:#00ff88;stop-opacity:0"/>
  </radialGradient>
  <radialGradient id="eyeGlow2" cx="50%" cy="50%" r="50%">
    <stop offset="0%" style="stop-color:#00ff88;stop-opacity:0.6"/>
    <stop offset="100%" style="stop-color:#00ff88;stop-opacity:0"/>
  </radialGradient>
</defs>

<rect width="1440" height="900" fill="url(#bg)"/>
<ellipse cx="400" cy="520" rx="250" ry="120" fill="url(#eyeGlow1)" opacity="0.5"/>
<ellipse cx="1040" cy="520" rx="250" ry="120" fill="url(#eyeGlow2)" opacity="0.5"/>
<ellipse cx="720" cy="450" rx="450" ry="220" fill="#7c3aed" opacity="0.05"/>

<ellipse cx="400" cy="520" rx="130" ry="65" fill="#003318"/>
<ellipse cx="400" cy="520" rx="130" ry="65" fill="none" stroke="#00ff88" stroke-width="2" opacity="0.8"/>
<ellipse cx="400" cy="520" rx="100" ry="48" fill="#004d22"/>
<ellipse cx="400" cy="520" rx="100" ry="48" fill="none" stroke="#00ff88" stroke-width="1.5" opacity="0.6"/>
<ellipse cx="400" cy="520" rx="48" ry="48" fill="#001a0d"/>
<ellipse cx="400" cy="520" rx="48" ry="48" fill="none" stroke="#00ff88" stroke-width="1" opacity="0.9"/>
<circle cx="400" cy="520" r="16" fill="#00ff88" opacity="0.9"/>
<circle cx="400" cy="520" r="8" fill="#00ff88"/>
<circle cx="382" cy="505" r="5" fill="#ffffff" opacity="0.8"/>

<ellipse cx="1040" cy="520" rx="130" ry="65" fill="#003318"/>
<ellipse cx="1040" cy="520" rx="130" ry="65" fill="none" stroke="#00ff88" stroke-width="2" opacity="0.8"/>
<ellipse cx="1040" cy="520" rx="100" ry="48" fill="#004d22"/>
<ellipse cx="1040" cy="520" rx="100" ry="48" fill="none" stroke="#00ff88" stroke-width="1.5" opacity="0.6"/>
<ellipse cx="1040" cy="520" rx="48" ry="48" fill="#001a0d"/>
<ellipse cx="1040" cy="520" rx="48" ry="48" fill="none" stroke="#00ff88" stroke-width="1" opacity="0.9"/>
<circle cx="1040" cy="520" r="16" fill="#00ff88" opacity="0.9"/>
<circle cx="1040" cy="520" r="8" fill="#00ff88"/>
<circle cx="1022" cy="505" r="5" fill="#ffffff" opacity="0.8"/>

<path d="M270 520 Q335 480 400 515 Q465 550 530 520" fill="none" stroke="#00ff88" stroke-width="1.5" opacity="0.5"/>
<path d="M270 520 Q335 560 400 525 Q465 490 530 520" fill="none" stroke="#00ff88" stroke-width="1.5" opacity="0.5"/>
<path d="M910 520 Q975 480 1040 515 Q1105 550 1170 520" fill="none" stroke="#00ff88" stroke-width="1.5" opacity="0.5"/>
<path d="M910 520 Q975 560 1040 525 Q1105 490 1170 520" fill="none" stroke="#00ff88" stroke-width="1.5" opacity="0.5"/>

<line x1="400" y1="600" x2="400" y2="650" stroke="#00ff88" stroke-width="1" opacity="0.3"/>
<line x1="388" y1="638" x2="400" y2="655" stroke="#00ff88" stroke-width="1" opacity="0.2"/>
<line x1="412" y1="638" x2="400" y2="655" stroke="#00ff88" stroke-width="1" opacity="0.2"/>
<line x1="1040" y1="600" x2="1040" y2="650" stroke="#00ff88" stroke-width="1" opacity="0.3"/>
<line x1="1028" y1="638" x2="1040" y2="655" stroke="#00ff88" stroke-width="1" opacity="0.2"/>
<line x1="1052" y1="638" x2="1040" y2="655" stroke="#00ff88" stroke-width="1" opacity="0.2"/>

<circle cx="400" cy="400" r="70" fill="none" stroke="#00ff88" stroke-width="0.5" opacity="0.15" stroke-dasharray="6 6"/>
<circle cx="1040" cy="400" r="70" fill="none" stroke="#00ff88" stroke-width="0.5" opacity="0.15" stroke-dasharray="6 6"/>

<circle cx="720" cy="180" r="3" fill="#00ff88" opacity="0.9"/>
<path d="M717 175 L720 165 L723 175 L733 178 L723 184 L720 194 L717 184 L707 178 Z" fill="#00ff88" opacity="0.7"/>
<circle cx="150" cy="120" r="2" fill="#ffffff" opacity="0.8"/>
<circle cx="280" cy="80" r="1.5" fill="#00ff88" opacity="0.6"/>
<circle cx="1200" cy="100" r="2.5" fill="#ffffff" opacity="0.7"/>
<circle cx="1350" cy="200" r="1.5" fill="#00ff88" opacity="0.5"/>
<circle cx="80" cy="300" r="2" fill="#7c3aed" opacity="0.7"/>
<circle cx="1380" cy="350" r="1.5" fill="#ffffff" opacity="0.6"/>
<circle cx="600" cy="100" r="2" fill="#fbbf24" opacity="0.7"/>
<circle cx="900" cy="80" r="1.5" fill="#fbbf24" opacity="0.6"/>
<circle cx="200" cy="700" r="1.5" fill="#7c3aed" opacity="0.4"/>
<circle cx="1300" cy="680" r="2" fill="#00ff88" opacity="0.4"/>
<circle cx="100" cy="500" r="1" fill="#ffffff" opacity="0.5"/>
<circle cx="1400" cy="450" r="1" fill="#ffffff" opacity="0.5"/>
<circle cx="500" cy="200" r="1.5" fill="#ffffff" opacity="0.6"/>
<circle cx="960" cy="150" r="1.5" fill="#ffffff" opacity="0.5"/>
<circle cx="350" cy="300" r="1" fill="#00ff88" opacity="0.4"/>
<circle cx="1100" cy="280" r="1" fill="#00ff88" opacity="0.4"/>
<path d="M145 115 L150 105 L155 115 L165 118 L155 124 L150 134 L145 124 L135 118 Z" fill="#ffffff" opacity="0.4"/>
<path d="M1195 95 L1200 85 L1205 95 L1215 98 L1205 104 L1200 114 L1195 104 L1185 98 Z" fill="#fbbf24" opacity="0.5"/>
<path d="M595 95 L600 85 L605 95 L615 98 L605 104 L600 114 L595 104 L585 98 Z" fill="#fbbf24" opacity="0.4"/>
</svg>
